<?xml version="1.0" encoding="UTF-8" standalone="no"?>
<svg
   xmlns:dc="http://purl.org/dc/elements/1.1/"
   xmlns:cc="http://creativecommons.org/ns#"
   xmlns:rdf="http://www.w3.org/1999/02/22-rdf-syntax-ns#"
   xmlns:svg="http://www.w3.org/2000/svg"
   xmlns="http://www.w3.org/2000/svg"
   xmlns:xlink="http://www.w3.org/1999/xlink"
   xmlns:sodipodi="http://sodipodi.sourceforge.net/DTD/sodipodi-0.dtd"
   xmlns:inkscape="http://www.inkscape.org/namespaces/inkscape"
   sodipodi:docname="icon-search-grey.svg"
   inkscape:version="1.0 (4035a4fb49, 2020-05-01)"
   id="svg8"
   version="1.1"
   viewBox="0 0 210 297"
   height="297mm"
   width="210mm">
  <defs
     id="defs2">
    <path
       d="M8.5,0 C13.1944204,0 17,3.80557963 17,8.5 C17,10.4865245 16.3185332,12.3138839 15.1766205,13.7610573 L19.7071068,18.2928932 C20.0976311,18.6834175 20.0976311,19.3165825 19.7071068,19.7071068 C19.3165825,20.0976311 18.6834175,20.0976311 18.2928932,19.7071068 L18.2928932,19.7071068 L13.7610573,15.1766205 C12.3138839,16.3185332 10.4865245,17 8.5,17 C3.80557963,17 0,13.1944204 0,8.5 C0,3.80557963 3.80557963,0 8.5,0 Z M8.5,2 C4.91014913,2 2,4.91014913 2,8.5 C2,12.0898509 4.91014913,15 8.5,15 C10.2704128,15 11.8755097,14.2921984 13.0477521,13.1441339 L13.0928932,13.0928932 C13.1090201,13.0767663 13.1255608,13.0613054 13.1424811,13.0465104 C14.2921984,11.8755097 15,10.2704128 15,8.5 C15,4.91014913 12.0898509,2 8.5,2 Z"
       id="path-1" />
  </defs>
  <sodipodi:namedview
     inkscape:window-maximized="0"
     inkscape:window-y="-8"
     inkscape:window-x="-8"
     inkscape:window-height="705"
     inkscape:window-width="892"
     showgrid="false"
     inkscape:document-rotation="0"
     inkscape:current-layer="layer1"
     inkscape:document-units="mm"
     inkscape:cy="447.48455"
     inkscape:cx="367.04545"
     inkscape:zoom="3.52"
     inkscape:pageshadow="2"
     inkscape:pageopacity="0.0"
     borderopacity="1.0"
     bordercolor="#666666"
     pagecolor="#ffffff"
     id="base" />
  <metadata
     id="metadata5">
    <rdf:RDF>
      <cc:Work
         rdf:about="">
        <dc:format>image/svg+xml</dc:format>
        <dc:type
           rdf:resource="http://purl.org/dc/dcmitype/StillImage" />
        <dc:title></dc:title>
      </cc:Work>
    </rdf:RDF>
  </metadata>
  <g
     id="layer1"
     inkscape:groupmode="layer"
     inkscape:label="Capa 1">
    <g
       transform="matrix(0.26458333,0,0,0.26458333,89.42797,106.73975)"
       style="fill:#b3b3b3;fill-rule:evenodd;stroke:none;stroke-width:1"
       id="icon-search">
      <mask
         fill="#ffffff"
         id="mask-2">
        <use
           height="100%"
           width="100%"
           y="0"
           x="0"
           id="use59"
           xlink:href="#path-1" />
      </mask>
      <use
         style="fill:#b3b3b3"
         height="100%"
         width="100%"
         y="0"
         x="0"
         id="use62"
         xlink:href="#path-1"
         fill-rule="nonzero"
         fill="#572ee5" />
    </g>
  </g>
</svg>
